<svg width="638" height="130" viewBox="0 0 638 130" fill="none" xmlns="http://www.w3.org/2000/svg">
<path d="M601.807 125.48V124.94C601.807 123.98 602.887 122.48 605.047 120.44C607.327 118.28 608.467 115.88 608.467 113.24V15.14C608.467 12.5 607.327 10.16 605.047 8.12002C602.887 5.96002 601.807 4.34002 601.807 3.26002V2.72001C601.807 1.04001 603.067 0.200012 605.587 0.200012H633.667C636.187 0.200012 637.447 1.04001 637.447 2.72001V3.26002C637.447 4.34002 636.247 5.96002 633.847 8.12002C631.447 10.16 630.247 12.5 630.247 15.14V113.24C630.247 115.88 631.447 118.28 633.847 120.44C636.247 122.48 637.447 123.98 637.447 124.94V125.48C637.447 127.16 636.187 128 633.667 128H605.587C603.067 128 601.807 127.16 601.807 125.48Z" fill="black"/>
<path d="M587.107 113.06C588.187 115.7 589.987 118.04 592.507 120.08C595.027 122.12 596.287 123.74 596.287 124.94V125.48C596.287 127.16 595.027 128 592.507 128H560.467C557.947 128 556.687 127.16 556.687 125.48V124.94C556.687 123.98 557.407 122.96 558.847 121.88C560.407 120.8 561.727 119.6 562.807 118.28C564.007 116.84 564.187 115.1 563.347 113.06L556.327 95.24H501.967L495.307 113.06C494.467 115.1 494.587 116.84 495.667 118.28C496.867 119.6 498.187 120.8 499.627 121.88C501.187 122.96 501.967 123.98 501.967 124.94V125.48C501.967 127.16 500.647 128 498.007 128H477.667C475.147 128 473.887 127.16 473.887 125.48V124.94C473.887 123.74 475.147 122.18 477.667 120.26C480.187 118.22 481.987 115.82 483.067 113.06L520.867 16.04C521.707 13.76 520.927 11.24 518.527 8.48001C516.127 5.72001 514.927 3.98002 514.927 3.26002V2.72001C514.927 1.04001 515.947 0.200012 517.987 0.200012H532.207C536.887 0.200012 540.127 2.48001 541.927 7.04001L587.107 113.06ZM505.567 85.52H552.547L528.427 23.96L505.567 85.52Z" fill="black"/>
<path d="M435.228 129.62C424.068 129.62 415.008 127.52 408.048 123.32C401.088 119 397.608 114.2 397.608 108.92C397.608 106.28 398.388 104.24 399.948 102.8C401.628 101.36 403.848 100.64 406.608 100.64C409.008 100.64 410.988 101.42 412.548 102.98C414.228 104.54 415.548 106.46 416.508 108.74C417.468 111.02 418.548 113.3 419.748 115.58C421.068 117.74 422.988 119.6 425.508 121.16C428.148 122.72 431.388 123.5 435.228 123.5C440.148 123.5 444.108 122.3 447.108 119.9C450.228 117.5 451.788 114.08 451.788 109.64C451.788 105.2 449.988 101.78 446.388 99.38C442.788 96.86 438.408 95 433.248 93.8C428.208 92.6 423.108 91.22 417.948 89.66C412.788 88.1 408.408 85.34 404.808 81.38C401.208 77.3 399.408 71.96 399.408 65.36C399.408 58.04 402.708 51.98 409.308 47.18C415.908 42.26 424.368 39.8 434.688 39.8C445.368 39.8 454.008 42.02 460.608 46.46C467.328 50.78 470.688 55.7 470.688 61.22C470.688 63.5 469.908 65.36 468.348 66.8C466.788 68.24 464.808 68.96 462.408 68.96C460.128 68.96 458.208 68.18 456.648 66.62C455.208 65.06 453.948 63.2 452.868 61.04C451.908 58.76 450.828 56.54 449.628 54.38C448.548 52.1 446.808 50.18 444.408 48.62C442.128 47.06 439.248 46.28 435.768 46.28C431.448 46.28 427.848 47.6 424.968 50.24C422.088 52.88 420.648 56.18 420.648 60.14C420.648 64.58 422.448 68.06 426.048 70.58C429.648 73.1 433.968 75.02 439.008 76.34C444.168 77.54 449.328 78.92 454.488 80.48C459.648 82.04 464.028 84.8 467.628 88.76C471.228 92.72 473.028 98 473.028 104.6C473.028 111.8 469.548 117.8 462.588 122.6C455.748 127.28 446.628 129.62 435.228 129.62Z" fill="black"/>
<path d="M383.173 111.08C383.173 114.2 383.653 116.54 384.613 118.1C385.573 119.66 386.593 120.56 387.673 120.8C388.873 120.92 389.953 121.28 390.913 121.88C391.873 122.36 392.353 123.26 392.353 124.58C392.353 127.58 387.853 129.08 378.853 129.08C373.813 129.08 370.093 128.06 367.693 126.02C365.293 123.98 364.153 120.56 364.273 115.76C358.993 125.12 349.993 129.8 337.273 129.8C327.193 129.8 319.093 126.44 312.973 119.72C306.853 113 303.793 103.28 303.793 90.56V59.42C303.793 56.66 302.653 54.2 300.373 52.04C298.093 49.76 296.953 48.2 296.953 47.36V46.82C296.953 45.02 298.033 43.94 300.193 43.58L319.093 40.52C323.173 39.92 325.213 40.82 325.213 43.22L324.853 92.54C324.853 111.62 330.853 121.16 342.853 121.16C348.373 121.16 352.933 118.94 356.533 114.5C360.253 109.94 362.113 104.06 362.113 96.86V59.42C362.113 56.66 360.913 54.2 358.513 52.04C356.233 49.76 355.093 48.2 355.093 47.36V46.82C355.093 45.02 356.113 43.94 358.153 43.58L377.413 40.52C381.253 39.92 383.173 40.82 383.173 43.22V111.08Z" fill="black"/>
<path d="M284.257 112.52C285.457 114.08 287.017 115.7 288.937 117.38C290.977 118.94 292.537 120.32 293.617 121.52C294.697 122.6 295.237 123.68 295.237 124.76V125.48C295.237 127.16 294.157 128 291.997 128H260.857C258.817 128 257.797 127.1 257.797 125.3V124.76C257.797 123.92 258.517 122.9 259.957 121.7C261.397 120.5 262.297 119.42 262.657 118.46C263.137 117.38 262.417 115.28 260.497 112.16L245.197 93.08L228.277 112.88C226.357 115.76 225.577 117.74 225.937 118.82C226.297 119.78 227.197 120.86 228.637 122.06C230.077 123.14 230.797 124.04 230.797 124.76V125.3C230.797 127.1 229.717 128 227.557 128H205.417C203.257 128 202.177 127.16 202.177 125.48V124.76C202.177 123.68 202.777 122.72 203.977 121.88C205.177 120.92 206.977 119.6 209.377 117.92C211.777 116.24 213.877 114.32 215.677 112.16L239.257 85.34L216.937 57.44C215.137 55.04 213.157 53.06 210.997 51.5C208.957 49.82 207.457 48.62 206.497 47.9C205.657 47.06 205.237 46.04 205.237 44.84V44.12C205.237 42.44 206.257 41.6 208.297 41.6H239.077C241.237 41.6 242.317 42.5 242.317 44.3V44.84C242.317 45.8 241.777 47.06 240.697 48.62C239.617 50.06 238.957 51.32 238.717 52.4C238.477 53.36 239.077 55.1 240.517 57.62L255.457 76.34L272.377 57.62C274.057 55.1 274.657 53.3 274.177 52.22C273.817 51.14 272.917 49.88 271.477 48.44C270.157 46.88 269.497 45.68 269.497 44.84V44.3C269.497 42.5 270.517 41.6 272.557 41.6H291.097C293.137 41.6 294.157 42.44 294.157 44.12V44.84C294.157 45.92 293.737 47 292.897 48.08C292.177 49.04 290.797 50.42 288.757 52.22C286.837 53.9 285.157 55.64 283.717 57.44L261.217 83.54L284.257 112.52Z" fill="black"/>
<path d="M198.673 101.54C199.633 100.22 200.833 99.74 202.273 100.1C203.833 100.46 204.553 101.54 204.433 103.34C203.473 109.7 199.753 115.7 193.273 121.34C186.793 126.98 178.333 129.8 167.893 129.8C155.653 129.8 145.453 125.6 137.293 117.2C129.253 108.8 125.233 97.76 125.233 84.08C125.233 71.36 129.373 60.8 137.653 52.4C146.053 44 156.253 39.8 168.253 39.8C179.053 39.8 187.333 42.5 193.093 47.9C198.973 53.18 201.913 59.3 201.913 66.26C201.913 72.5 198.853 76.7 192.733 78.86L149.173 94.88C151.453 101.12 154.873 105.98 159.433 109.46C163.993 112.94 169.393 114.68 175.633 114.68C181.033 114.68 185.713 113.48 189.673 111.08C193.753 108.56 196.753 105.38 198.673 101.54ZM164.653 46.64C159.013 46.64 154.513 49.34 151.153 54.74C147.793 60.14 146.113 67.22 146.113 75.98C146.113 80.06 146.473 83.9 147.193 87.5L177.073 74.54C180.193 73.1 181.753 70.58 181.753 66.98C181.753 62.66 180.073 58.22 176.713 53.66C173.473 48.98 169.453 46.64 164.653 46.64Z" fill="black"/>
<path d="M114.37 0.200012C117.01 0.200012 118.33 1.10001 118.33 2.90001V3.44001C118.33 4.40002 117.07 5.96002 114.55 8.12002C112.03 10.16 110.77 12.5 110.77 15.14V121.88C110.77 125.96 108.85 128 105.01 128H98.5297C96.4897 128 94.2697 126.32 91.8697 122.96L18.9697 23.96V112.7C18.9697 115.34 20.2897 117.8 22.9297 120.08C25.5697 122.24 26.8897 123.86 26.8897 124.94V125.48C26.8897 127.16 25.5697 128 22.9297 128H4.38969C1.74969 128 0.429688 127.16 0.429688 125.48V124.94C0.429688 123.86 1.56969 122.24 3.84969 120.08C6.24969 117.8 7.44969 115.34 7.44969 112.7V15.32C7.44969 12.68 6.24969 10.34 3.84969 8.30001C1.56969 6.26001 0.429688 4.70001 0.429688 3.62001V2.90001C0.429688 1.10001 1.74969 0.200012 4.38969 0.200012H22.2097C25.2097 0.200012 27.7297 1.64001 29.7697 4.52001L99.2497 101.18V15.14C99.2497 12.5 97.9897 10.16 95.4697 8.12002C92.9497 5.96002 91.6897 4.40002 91.6897 3.44001V2.90001C91.6897 1.10001 93.0097 0.200012 95.6497 0.200012H114.37Z" fill="black"/>
</svg>
